<?xml version="1.0" encoding="UTF-8" standalone="no"?>
<svg
   id="Layer_1"
   enable-background="new 0 0 512 512"
   height="512"
   viewBox="0 0 512 512"
   width="512"
   version="1.1"
   sodipodi:docname="contacts.svg"
   inkscape:version="1.1 (ce6663b3b7, 2021-05-25)"
   inkscape:export-filename="/home/viniciusln/Downloads/contacts.png"
   inkscape:export-xdpi="96"
   inkscape:export-ydpi="96"
   xmlns:inkscape="http://www.inkscape.org/namespaces/inkscape"
   xmlns:sodipodi="http://sodipodi.sourceforge.net/DTD/sodipodi-0.dtd"
   xmlns="http://www.w3.org/2000/svg"
   xmlns:svg="http://www.w3.org/2000/svg">
  <defs
     id="defs15" />
  <sodipodi:namedview
     id="namedview13"
     pagecolor="#ffffff"
     bordercolor="#666666"
     borderopacity="1.0"
     inkscape:pageshadow="2"
     inkscape:pageopacity="0.0"
     inkscape:pagecheckerboard="0"
     showgrid="false"
     inkscape:zoom="1.1435242"
     inkscape:cx="102.75252"
     inkscape:cy="267.5938"
     inkscape:window-width="1920"
     inkscape:window-height="1015"
     inkscape:window-x="0"
     inkscape:window-y="0"
     inkscape:window-maximized="1"
     inkscape:current-layer="g10"
     inkscape:snap-object-midpoints="true"
     inkscape:snap-page="false"
     inkscape:lockguides="false" />
  <g
     id="g10"
     style="fill:#ebe0c9;fill-opacity:1">
    <path
       d="m466.862 64.674h-11.517c.379-34.865-27.804-64.674-63.071-64.674h-240.445c-.029 0-.057.004-.086.004s-.057-.004-.086-.004h-34.823c-34.563 0-62.709 27.943-63.059 62.421h-18.775c-15.509 0-28.126 12.617-28.126 28.126s12.617 28.126 28.126 28.126h18.759v54.05h-18.759c-15.509 0-28.126 12.618-28.126 28.127s12.617 28.126 28.126 28.126h18.759v54.05h-18.759c-15.509 0-28.126 12.618-28.126 28.127s12.617 28.125 28.126 28.125h18.759v54.05h-18.759c-15.509 0-28.126 12.617-28.126 28.126s12.617 28.126 28.126 28.126h18.776c.35 34.477 28.496 62.42 63.058 62.42h34.823c.029 0 .057-.004.086-.004s.057.004.086.004h240.445c35.376 0 63.441-29.886 63.071-64.813h11.519c21.098 0 38.262-17.165 38.262-38.263v-305.99c0-21.097-17.165-38.26-38.264-38.26zm23.264 262.504c0 12.827-10.436 23.263-23.262 23.263h-11.519v-66.746h11.519c8.746 0 16.811-2.956 23.262-7.913zm0-81.746c0 12.827-10.436 23.263-23.262 23.263h-11.519v-68.103h11.517c8.747 0 16.812-2.956 23.265-7.913v52.753zm-23.264-165.758c12.828 0 23.265 10.435 23.265 23.26v59.398c0 12.825-10.437 23.26-23.265 23.26h-11.517v-105.918zm-444.988 10.873c0-7.237 5.889-13.126 13.126-13.126h52.85c7.238 0 13.126 5.889 13.126 13.126s-5.888 13.126-13.126 13.126h-52.85c-7.238 0-13.126-5.889-13.126-13.126zm0 110.303c0-7.238 5.889-13.127 13.126-13.127h52.85c7.238 0 13.126 5.889 13.126 13.127 0 7.237-5.888 13.126-13.126 13.126h-52.85c-7.238 0-13.126-5.889-13.126-13.126zm0 110.302c0-7.238 5.889-13.127 13.126-13.127h52.85c7.238 0 13.126 5.889 13.126 13.126 0 7.238-5.888 13.127-13.126 13.127h-52.85c-7.238 0-13.126-5.888-13.126-13.126zm0 110.302c0-7.237 5.889-13.126 13.126-13.126h52.85c7.238 0 13.126 5.889 13.126 13.126s-5.888 13.126-13.126 13.126h-52.85c-7.238 0-13.126-5.889-13.126-13.126zm444.99 10.733h-11.519v-10.732c0-9.697-15-9.697-15 0v27.476c0 26.506-21.564 48.07-48.071 48.07h-233.118v-385.828c0-9.697-15-9.697-15 0v385.827h-27.323c-26.291 0-47.709-21.214-48.058-47.42h19.075c15.509 0 28.126-12.617 28.126-28.126s-12.617-28.126-28.126-28.126h-19.091v-54.05h19.091c15.509 0 28.126-12.618 28.126-28.127s-12.617-28.126-28.126-28.126h-19.091v-54.05h19.091c15.509 0 28.126-12.617 28.126-28.126s-12.617-28.127-28.126-28.127h-19.091v-54.05h19.091c15.509 0 28.126-12.617 28.126-28.126s-12.617-28.125-28.126-28.125h-19.075c.349-26.207 21.767-47.421 48.059-47.421h27.323v57.174c0 9.697 15 9.697 15 0v-57.174h233.118c26.506 0 48.071 21.564 48.071 48.071v319.467c0 9.697 15 9.697 15 0v-17.098h11.519c8.746 0 16.811-2.956 23.262-7.913v51.397c-.001 12.827-10.436 23.263-23.263 23.263z"
       id="path2"
       style="fill:#ebe0c9;fill-opacity:1" />
    <circle
       style="fill:#b8860b;fill-opacity:1;stroke:#000000;stroke-width:2.26356;stroke-miterlimit:4;stroke-dasharray:none;stroke-opacity:1"
       id="path27330"
       cx="294"
       cy="256"
       r="97.55365" />
    <circle
       style="fill:#ffffff;fill-opacity:1;stroke:#000000;stroke-width:2.32341;stroke-miterlimit:4;stroke-dasharray:none;stroke-opacity:1"
       id="path38746"
       cx="294"
       cy="256"
       r="90.95079" />
    <text
       xml:space="preserve"
       style="font-style:normal;font-variant:normal;font-weight:normal;font-stretch:normal;font-size:161.122px;line-height:1.25;font-family:Z003;-inkscape-font-specification:'Z003, Normal';font-variant-ligatures:normal;font-variant-caps:normal;font-variant-numeric:normal;font-variant-east-asian:normal;fill:#ebe0c9;fill-opacity:1;stroke:#000000;stroke-width:0.827682;stroke-opacity:1"
       x="198.20203"
       y="289.97574"
       id="text4866"><tspan
         sodipodi:role="line"
         id="tspan4864"
         x="198.20203"
         y="289.97574"
         style="stroke-width:0.827682">V</tspan></text>
    <text
       xml:space="preserve"
       style="font-style:normal;font-variant:normal;font-weight:normal;font-stretch:normal;font-size:143.465px;line-height:1.25;font-family:Z003;-inkscape-font-specification:'Z003, Normal';font-variant-ligatures:normal;font-variant-caps:normal;font-variant-numeric:normal;font-variant-east-asian:normal;fill:#ebe0c9;fill-opacity:1;stroke:#000000;stroke-width:0.827682;stroke-miterlimit:4;stroke-dasharray:none;stroke-opacity:1"
       x="235.28529"
       y="315.87711"
       id="text13314"><tspan
         sodipodi:role="line"
         id="tspan13312"
         x="235.28529"
         y="315.87711"
         style="font-style:normal;font-variant:normal;font-weight:normal;font-stretch:normal;font-size:143.465px;font-family:Z003;-inkscape-font-specification:'Z003, Normal';font-variant-ligatures:normal;font-variant-caps:normal;font-variant-numeric:normal;font-variant-east-asian:normal;stroke-width:0.827682;stroke-miterlimit:4;stroke-dasharray:none">N</tspan></text>
  </g>
</svg>
