<?xml version="1.0" encoding="UTF-8" standalone="no"?>
<svg
   id="Layer_1"
   enable-background="new 0 0 512 512"
   height="512"
   viewBox="0 0 512 512"
   width="512"
   version="1.1"
   sodipodi:docname="logo.svg"
   inkscape:version="1.1 (ce6663b3b7, 2021-05-25)"
   inkscape:export-filename="/home/viniciusln/Documents/Coding/Websites/Portfolio-Website/img/favicon.png"
   inkscape:export-xdpi="96"
   inkscape:export-ydpi="96"
   xmlns:inkscape="http://www.inkscape.org/namespaces/inkscape"
   xmlns:sodipodi="http://sodipodi.sourceforge.net/DTD/sodipodi-0.dtd"
   xmlns="http://www.w3.org/2000/svg"
   xmlns:svg="http://www.w3.org/2000/svg">
  <defs
     id="defs15" />
  <sodipodi:namedview
     id="namedview13"
     pagecolor="#ffffff"
     bordercolor="#666666"
     borderopacity="1.0"
     inkscape:pageshadow="2"
     inkscape:pageopacity="0.0"
     inkscape:pagecheckerboard="0"
     showgrid="false"
     inkscape:zoom="1.1435242"
     inkscape:cx="66.023963"
     inkscape:cy="267.59381"
     inkscape:window-width="1920"
     inkscape:window-height="1015"
     inkscape:window-x="0"
     inkscape:window-y="0"
     inkscape:window-maximized="1"
     inkscape:current-layer="g10"
     inkscape:snap-object-midpoints="true"
     inkscape:snap-page="false"
     inkscape:lockguides="false" />
  <g
     id="g10"
     style="fill:#ebe0c9;fill-opacity:1">
    <path
       id="path1021"
       style="fill:#b8860b;fill-opacity:1;stroke:#000000;stroke-width:5.64485;stroke-miterlimit:4;stroke-dasharray:none;stroke-opacity:1"
       d="M 256 12.720703 A 243.27867 243.27867 0 0 0 12.720703 256 A 243.27867 243.27867 0 0 0 256 499.2793 A 243.27867 243.27867 0 0 0 499.2793 256 A 243.27867 243.27867 0 0 0 256 12.720703 z M 256 29.1875 A 226.81252 226.81252 0 0 1 267.12891 29.460938 A 226.81252 226.81252 0 0 1 278.23242 30.279297 A 226.81252 226.81252 0 0 1 289.28125 31.642578 A 226.81252 226.81252 0 0 1 300.24805 33.544922 A 226.81252 226.81252 0 0 1 311.11133 35.984375 A 226.81252 226.81252 0 0 1 321.83984 38.953125 A 226.81252 226.81252 0 0 1 332.41016 42.445312 A 226.81252 226.81252 0 0 1 342.79688 46.453125 A 226.81252 226.81252 0 0 1 352.97461 50.964844 A 226.81252 226.81252 0 0 1 362.91797 55.96875 A 226.81252 226.81252 0 0 1 372.60547 61.457031 A 226.81252 226.81252 0 0 1 382.00977 67.412109 A 226.81252 226.81252 0 0 1 391.11133 73.822266 A 226.81252 226.81252 0 0 1 399.88867 80.671875 A 226.81252 226.81252 0 0 1 408.31836 87.943359 A 226.81252 226.81252 0 0 1 416.38086 95.619141 A 226.81252 226.81252 0 0 1 424.05664 103.68164 A 226.81252 226.81252 0 0 1 431.32812 112.11133 A 226.81252 226.81252 0 0 1 438.17773 120.88867 A 226.81252 226.81252 0 0 1 444.58789 129.99023 A 226.81252 226.81252 0 0 1 450.54297 139.39453 A 226.81252 226.81252 0 0 1 456.03125 149.08203 A 226.81252 226.81252 0 0 1 461.03516 159.02539 A 226.81252 226.81252 0 0 1 465.54688 169.20312 A 226.81252 226.81252 0 0 1 469.55469 179.58984 A 226.81252 226.81252 0 0 1 473.04688 190.16016 A 226.81252 226.81252 0 0 1 476.01562 200.88867 A 226.81252 226.81252 0 0 1 478.45508 211.75195 A 226.81252 226.81252 0 0 1 480.35742 222.71875 A 226.81252 226.81252 0 0 1 481.7207 233.76758 A 226.81252 226.81252 0 0 1 482.53906 244.87109 A 226.81252 226.81252 0 0 1 482.8125 256 A 226.81252 226.81252 0 0 1 480.50391 288.2793 A 226.81252 226.81252 0 0 1 473.625 319.90039 A 226.81252 226.81252 0 0 1 462.31641 350.2207 A 226.81252 226.81252 0 0 1 446.80664 378.625 A 226.81252 226.81252 0 0 1 427.41406 404.53125 A 226.81252 226.81252 0 0 1 404.53125 427.41406 A 226.81252 226.81252 0 0 1 378.625 446.80664 A 226.81252 226.81252 0 0 1 350.2207 462.31641 A 226.81252 226.81252 0 0 1 319.90039 473.625 A 226.81252 226.81252 0 0 1 288.2793 480.50391 A 226.81252 226.81252 0 0 1 256 482.8125 A 226.81252 226.81252 0 0 1 223.7207 480.50391 A 226.81252 226.81252 0 0 1 192.09961 473.625 A 226.81252 226.81252 0 0 1 161.7793 462.31641 A 226.81252 226.81252 0 0 1 133.375 446.80664 A 226.81252 226.81252 0 0 1 107.46875 427.41406 A 226.81252 226.81252 0 0 1 84.585938 404.53125 A 226.81252 226.81252 0 0 1 65.193359 378.625 A 226.81252 226.81252 0 0 1 49.683594 350.2207 A 226.81252 226.81252 0 0 1 38.375 319.90039 A 226.81252 226.81252 0 0 1 31.496094 288.2793 A 226.81252 226.81252 0 0 1 29.1875 256 A 226.81252 226.81252 0 0 1 31.496094 223.7207 A 226.81252 226.81252 0 0 1 38.375 192.09961 A 226.81252 226.81252 0 0 1 49.683594 161.7793 A 226.81252 226.81252 0 0 1 65.193359 133.375 A 226.81252 226.81252 0 0 1 84.585938 107.46875 A 226.81252 226.81252 0 0 1 107.46875 84.585938 A 226.81252 226.81252 0 0 1 133.375 65.193359 A 226.81252 226.81252 0 0 1 161.7793 49.683594 A 226.81252 226.81252 0 0 1 192.09961 38.375 A 226.81252 226.81252 0 0 1 223.7207 31.496094 A 226.81252 226.81252 0 0 1 256 29.1875 z " />
    <text
       xml:space="preserve"
       style="font-style:normal;font-variant:normal;font-weight:normal;font-stretch:normal;font-size:401.806px;line-height:1.25;font-family:Z003;-inkscape-font-specification:'Z003, Normal';font-variant-ligatures:normal;font-variant-caps:normal;font-variant-numeric:normal;font-variant-east-asian:normal;fill:#ebe0c9;fill-opacity:1;stroke:#000000;stroke-width:2.06407;stroke-opacity:1"
       x="17.099596"
       y="340.72849"
       id="text4866"><tspan
         sodipodi:role="line"
         id="tspan4864"
         x="17.099596"
         y="340.72849"
         style="stroke-width:2.06407">V</tspan></text>
    <text
       xml:space="preserve"
       style="font-style:normal;font-variant:normal;font-weight:normal;font-stretch:normal;font-size:357.772px;line-height:1.25;font-family:Z003;-inkscape-font-specification:'Z003, Normal';font-variant-ligatures:normal;font-variant-caps:normal;font-variant-numeric:normal;font-variant-east-asian:normal;fill:#ebe0c9;fill-opacity:1;stroke:#000000;stroke-width:2.06407;stroke-miterlimit:4;stroke-dasharray:none;stroke-opacity:1"
       x="109.57763"
       y="405.32114"
       id="text13314"><tspan
         sodipodi:role="line"
         id="tspan13312"
         x="109.57763"
         y="405.32114"
         style="font-style:normal;font-variant:normal;font-weight:normal;font-stretch:normal;font-size:357.772px;font-family:Z003;-inkscape-font-specification:'Z003, Normal';font-variant-ligatures:normal;font-variant-caps:normal;font-variant-numeric:normal;font-variant-east-asian:normal;stroke-width:2.06407;stroke-miterlimit:4;stroke-dasharray:none">N</tspan></text>
  </g>
</svg>
